<svg xmlns="http://www.w3.org/2000/svg" width="98" height="98" viewBox="0 0 98 98">
  <g id="Grupo_1189767" data-name="Grupo 1189767" transform="translate(-908 -6302)">
    <g id="Grupo_1189762" data-name="Grupo 1189762" transform="translate(315)">
      <circle id="Elipse_13742" data-name="Elipse 13742" cx="49" cy="49" r="49" transform="translate(593 6302)" fill="#19538d"/>
    </g>
    <g id="Grupo_1189764" data-name="Grupo 1189764" transform="translate(925.799 6319.951)">
      <g id="equipo" transform="translate(1.071 1.049)">
        <path id="Trazado_1031573" data-name="Trazado 1031573" d="M55.479,52.1a5.99,5.99,0,0,0-3.424-9.963v-8.1a1,1,0,0,0-.293-.708l-4.03-4.03c.182-.346.375-.687.536-1.041a1,1,0,0,0-.228-1.143l-1.865-1.748a16.869,16.869,0,0,0,.506-1.894l2.5-.585a1,1,0,0,0,.769-.876c.066-.675.1-1.345.1-1.99s-.034-1.314-.1-1.99a1,1,0,0,0-.769-.876l-2.5-.585a16.926,16.926,0,0,0-.506-1.894l1.865-1.748a1,1,0,0,0,.228-1.143,20.018,20.018,0,0,0-2-3.443,1,1,0,0,0-1.1-.373l-2.426.738a16.932,16.932,0,0,0-1.4-1.4l.739-2.426a1,1,0,0,0-.373-1.1,20.016,20.016,0,0,0-3.444-2,1,1,0,0,0-1.143.228L35.376,3.88a16.926,16.926,0,0,0-1.894-.508L32.9.869A1,1,0,0,0,32.021.1,19.918,19.918,0,0,0,28.04.1a1,1,0,0,0-.876.769l-.585,2.5a17.14,17.14,0,0,0-1.894.506L22.939,2.014A1.008,1.008,0,0,0,21.8,1.786a20.018,20.018,0,0,0-3.443,2,1,1,0,0,0-.373,1.1l.738,2.426a17.153,17.153,0,0,0-1.4,1.394L14.9,7.968a1,1,0,0,0-1.1.373,20.066,20.066,0,0,0-2,3.445,1,1,0,0,0,.228,1.143l1.866,1.748a16.926,16.926,0,0,0-.508,1.894l-2.5.585a1,1,0,0,0-.768.876c-.066.676-.1,1.345-.1,1.99s.034,1.314.1,1.99a1,1,0,0,0,.768.876l2.5.585a16.926,16.926,0,0,0,.506,1.894l-1.865,1.748a1,1,0,0,0-.228,1.143c.16.354.353.7.536,1.041l-4.03,4.03a.993.993,0,0,0-.294.708v8.1A5.99,5.99,0,0,0,4.588,52.1,5,5,0,0,0,0,57.061v2a1,1,0,0,0,1,1H17.021a1,1,0,0,0,1-1v-2A5,5,0,0,0,13.438,52.1a5.99,5.99,0,0,0-3.424-9.963V34.449l3.375-3.375c.138.207.26.424.405.626a1,1,0,0,0,1.1.373l2.426-.738a17.01,17.01,0,0,0,1.4,1.4l-.739,2.426a1,1,0,0,0,.373,1.1,20,20,0,0,0,3.444,2,1,1,0,0,0,1.143-.228l1.748-1.866a16.916,16.916,0,0,0,1.893.507l.585,2.5a1,1,0,0,0,.876.769c.335.033.659.033.989.05v2.143A5.99,5.99,0,0,0,25.609,52.1a5,5,0,0,0-4.585,4.964v2a1,1,0,0,0,1,1H38.041a1,1,0,0,0,1-1v-2A5,5,0,0,0,34.459,52.1a5.99,5.99,0,0,0-3.424-9.963V39.989c.33-.017.653-.017.989-.05a1,1,0,0,0,.876-.769l.585-2.5a17.036,17.036,0,0,0,1.894-.507l1.748,1.865a1,1,0,0,0,1.143.228,20.055,20.055,0,0,0,3.443-2,1,1,0,0,0,.373-1.1l-.738-2.426a16.934,16.934,0,0,0,1.4-1.4l2.427.739a1,1,0,0,0,1.1-.373c.145-.2.268-.42.405-.627l3.374,3.377v7.684A5.99,5.99,0,0,0,46.629,52.1a5,5,0,0,0-4.584,4.966v2a1,1,0,0,0,1,1H59.062a1,1,0,0,0,1-1v-2A5,5,0,0,0,55.48,52.1ZM16.02,57.061v1H2.006v-1a3.01,3.01,0,0,1,3.007-3.007h8a3.011,3.011,0,0,1,3.007,3.007Zm-3-9.013a4,4,0,1,1-4-4A4.008,4.008,0,0,1,13.017,48.049ZM37.04,57.061v1H23.027v-1a3.01,3.01,0,0,1,3.007-3.007h8a3.011,3.011,0,0,1,3.007,3.007Zm-3-9.013a4,4,0,1,1-4-4A4.008,4.008,0,0,1,34.038,48.049Zm11.015-18.1L42.7,29.229a1,1,0,0,0-1.064.321,15,15,0,0,1-2.071,2.071,1,1,0,0,0-.322,1.064l.716,2.353a18.267,18.267,0,0,1-1.872,1.085l-1.694-1.809a1,1,0,0,0-1.082-.253,14.981,14.981,0,0,1-2.814.753,1,1,0,0,0-.813.76L31.118,38a17.409,17.409,0,0,1-2.166,0l-.566-2.43a1,1,0,0,0-.813-.76,14.922,14.922,0,0,1-2.813-.753.992.992,0,0,0-1.083.252l-1.695,1.809a18.052,18.052,0,0,1-1.872-1.084l.717-2.353a1,1,0,0,0-.321-1.064,14.972,14.972,0,0,1-2.071-2.071,1,1,0,0,0-1.064-.321l-2.353.716a18.221,18.221,0,0,1-1.085-1.871l1.808-1.694a1,1,0,0,0,.254-1.082,14.945,14.945,0,0,1-.753-2.814,1,1,0,0,0-.76-.813l-2.43-.567q-.036-.551-.036-1.083c0-.354.012-.716.034-1.083l2.43-.567a1,1,0,0,0,.76-.813,14.917,14.917,0,0,1,.753-2.812,1,1,0,0,0-.252-1.083l-1.808-1.7A17.92,17.92,0,0,1,15.015,10.1l2.353.717a1,1,0,0,0,1.064-.322A15.022,15.022,0,0,1,20.5,8.42a1,1,0,0,0,.321-1.064L20.109,5a18.266,18.266,0,0,1,1.872-1.085l1.694,1.809a1,1,0,0,0,1.082.253,14.971,14.971,0,0,1,2.814-.753,1,1,0,0,0,.813-.76l.566-2.43a17.409,17.409,0,0,1,2.166,0l.566,2.43a1,1,0,0,0,.813.76,14.932,14.932,0,0,1,2.813.753,1,1,0,0,0,1.083-.252l1.695-1.809A18.051,18.051,0,0,1,39.957,5L39.24,7.356a1,1,0,0,0,.322,1.064,15,15,0,0,1,2.071,2.071,1,1,0,0,0,1.064.321L45.05,10.1a18.312,18.312,0,0,1,1.085,1.871l-1.809,1.694a1,1,0,0,0-.253,1.082,14.939,14.939,0,0,1,.753,2.813,1,1,0,0,0,.76.813l2.429.567c.024.367.036.729.036,1.083s-.012.716-.034,1.083l-2.429.567a1,1,0,0,0-.76.813,14.964,14.964,0,0,1-.753,2.814,1,1,0,0,0,.253,1.082l1.809,1.694a18.1,18.1,0,0,1-1.085,1.872Zm6,14.1a4,4,0,1,1-4,4A4.008,4.008,0,0,1,51.054,44.045Zm7.007,14.014H44.047v-1a3.01,3.01,0,0,1,3.007-3.007h8a3.011,3.011,0,0,1,3.007,3.007Zm0,0" transform="translate(-0.004 0)" fill="#fff"/>
        <path id="Trazado_1031574" data-name="Trazado 1031574" d="M149.017,56.008A13.013,13.013,0,1,0,162.03,69.021,13.028,13.028,0,0,0,149.017,56.008Zm-6.958,21.537a5.007,5.007,0,0,1,4.956-4.52h4a5.007,5.007,0,0,1,4.956,4.52,10.977,10.977,0,0,1-13.916,0Zm6.958-6.522a4,4,0,1,1,4-4A4.008,4.008,0,0,1,149.017,71.023Zm8.644,4.8a7.06,7.06,0,0,0-4.506-4.457,6.007,6.007,0,1,0-8.275,0,7.06,7.06,0,0,0-4.506,4.457,11.01,11.01,0,1,1,17.288,0Zm0,0" transform="translate(-118.987 -49)" fill="#fff"/>
        <path id="Trazado_1031575" data-name="Trazado 1031575" d="M432,152.008h2v2h-2Zm0,0" transform="translate(-377.951 -132.988)" fill="#fff"/>
        <path id="Trazado_1031576" data-name="Trazado 1031576" d="M464,152.008h2v2h-2Zm0,0" transform="translate(-405.947 -132.988)" fill="#fff"/>
        <path id="Trazado_1031577" data-name="Trazado 1031577" d="M464,184.008h2v2h-2Zm0,0" transform="translate(-405.947 -160.984)" fill="#fff"/>
        <path id="Trazado_1031578" data-name="Trazado 1031578" d="M464,120.008h2v2h-2Zm0,0" transform="translate(-405.947 -104.992)" fill="#fff"/>
        <path id="Trazado_1031579" data-name="Trazado 1031579" d="M0,152.008h2v2H0Zm0,0" transform="translate(-0.004 -132.988)" fill="#fff"/>
        <path id="Trazado_1031580" data-name="Trazado 1031580" d="M0,184.008h2v2H0Zm0,0" transform="translate(-0.004 -160.984)" fill="#fff"/>
        <path id="Trazado_1031581" data-name="Trazado 1031581" d="M0,120.008h2v2H0Zm0,0" transform="translate(-0.004 -104.992)" fill="#fff"/>
        <path id="Trazado_1031582" data-name="Trazado 1031582" d="M32,152.008h2v2H32Zm0,0" transform="translate(-28 -132.988)" fill="#fff"/>
      </g>
    </g>
  </g>
</svg>
