<svg xmlns="http://www.w3.org/2000/svg" xmlns:xlink="http://www.w3.org/1999/xlink" width="130" height="130" viewBox="0 0 130 130">
  <defs>
    <clipPath id="clip-path">
      <path id="Trazado_1031300" data-name="Trazado 1031300" d="M2.33,58.623a56.294,56.294,0,1,1,56.294,56.294A56.358,56.358,0,0,1,2.33,58.623M58.624,0a58.623,58.623,0,1,0,58.623,58.623A58.688,58.688,0,0,0,58.624,0Z" fill="#19538d"/>
    </clipPath>
    <clipPath id="clip-path-2">
      <path id="Trazado_1031301" data-name="Trazado 1031301" d="M32.931,102.036h-.005Z" transform="translate(-32.926 -102.034)" fill="#19538d"/>
    </clipPath>
    <clipPath id="clip-path-3">
      <path id="Trazado_1031302" data-name="Trazado 1031302" d="M13.892,29.209v.028l.083-.109Z" transform="translate(-13.892 -29.128)" fill="#19538d"/>
    </clipPath>
    <clipPath id="clip-path-4">
      <path id="Trazado_1031303" data-name="Trazado 1031303" d="M5.942,60.743l0-.042h0a.137.137,0,0,0,0,.043" transform="translate(-5.937 -60.7)" fill="#19538d"/>
    </clipPath>
    <clipPath id="clip-path-5">
      <path id="Trazado_1031304" data-name="Trazado 1031304" d="M107.924,54.335h0v0Z" transform="translate(-107.924 -54.311)" fill="#19538d"/>
    </clipPath>
    <clipPath id="clip-path-6">
      <path id="Trazado_1031305" data-name="Trazado 1031305" d="M9,42.917H9l.01-.036Z" transform="translate(-9.002 -42.882)" fill="#19538d"/>
    </clipPath>
    <clipPath id="clip-path-7">
      <path id="Trazado_1031306" data-name="Trazado 1031306" d="M70.38,8.861l-.027-.01h-.005l.032.011" transform="translate(-70.348 -8.85)" fill="#19538d"/>
    </clipPath>
    <clipPath id="clip-path-8">
      <path id="Trazado_1031307" data-name="Trazado 1031307" d="M17.484,26.319h0v0Z" transform="translate(-17.484 -26.318)" fill="#19538d"/>
    </clipPath>
    <clipPath id="clip-path-9">
      <path id="Trazado_1031308" data-name="Trazado 1031308" d="M14.7,28.076a.525.525,0,0,0-.06.082l.035-.044.026-.038Z" transform="translate(-14.639 -28.076)" fill="#19538d"/>
    </clipPath>
    <clipPath id="clip-path-10">
      <path id="Trazado_1031309" data-name="Trazado 1031309" d="M13.379,83.166l-.008-.014ZM72.312,8.943l-.022-.006.022.006m-5.3,100.933-.02-.106.094.257Zm-30.558-4.964.041.02-.006.014Zm-1.057-.518-.015-.009.023.011Zm-.536-.187.012-.012-.005.015Zm-.362-.173.007-.008.09.042-.005.01Zm-1.583.29.242-.408-.15.386-.13.13Zm1.3-.426,0,0,.007,0,0,0Zm50.906-.225-.233-.416.246.308v.123Zm-52.93-.532.2-.267-.271.447Zm-1.353-.469.062-.092-.166.36-.007.008ZM86.78,102l0-.009.045.068Zm-58.447-1.455.227-.226-.348.467Zm30.58,4.174a46.048,46.048,0,0,0,25.5-7.958l2.931,4.19-.109.077.349.523-.342-.357-.066-.122-.032.021,0,0-.488.326v0l-1.177.749-.005,0-1.7,1.012a50.941,50.941,0,0,1-16.261,5.867l-.278.048.124.618-.247-.6.106.62-.242-.6-.531.053-.371.089-.047,0-.333.059.065.625-.11-.4v-.217l-.061.005v0l-.281.043v-.005l-.688.092a.681.681,0,0,0-.087.005l-2.174.212c-.031,0-.057.007-.036,0l-1.145.077.11.617-.111-.622-.467.022-.038,0-1.776.044ZM25.27,97.7l-.223-.19c-.885-.758-1.755-1.555-2.59-2.374l3.631-3.612A46.16,46.16,0,0,0,49.758,103.9l-.887,5.047a51.1,51.1,0,0,1-10.1-3.012l-.284-.118-.1-.1-.425-.127-.272.568.1-.41.131-.131-.083-.071,0-.011-.139-.117-.224-.048-.281-.178-.32-.089v0l-.062-.028h0l-.308-.142-.312-.205H36.1l-.3-.191-.247-.066h0L34.628,104v0l-.358-.191h0l-.187-.157-.242-.077h0l-.57-.317-.058-.031h0l-.58-.335h0l-.19-.112,0,0-.078-.047-.012-.008h0l-.51-.305a1.008,1.008,0,0,0-.118-.073l-1.063-.667,0,0-.029-.011-.355.506.3-.556-.2-.129-.368.511.293-.556-.93-.63-.374.507.286-.565-.294-.207-.015-.009-.084-.059-.373.5.286-.568-.213-.15,0,0-.594-.439,0,.005-.291-.225h0l-.007-.005a.587.587,0,0,0-.076-.057l-.836-.677h-.065l0-.008-.338-.273h0l-.094-.071-.006.008-.087-.078,0,0-.863-.726H25.25ZM14.879,85.744l-.01-.024h0a.243.243,0,0,1,.012.029Zm-2.356-2.373.194-.105-.327.256h-.022Zm-.268-1.349h.019l-.158.105Zm94.087-2.475-.272-.136.234.065.092.092Zm.194-1.227.206.036.089.09Zm.151-.9-.081-.081.276.128Zm.207-.545-.207-.138.406.183Zm.343-.338.231.024.159.106Zm.12-.329.294.075.1.1Zm.916-.715,0,0c-.007.019-.015.037-.025.057Zm-.221-1.329.023,0h-.013ZM7.225,68.362l.14-.028-.309.121H7.04Zm.319-.588h.221l-.483.121Zm-.026-.121h.233l-.5.081Zm.039-.334-.219.109-.136.027ZM91.466,90.864a46.163,46.163,0,0,0,12.422-23.648l5.045.894c-.212,1.114-.463,2.227-.746,3.315L107.9,72.49l.607.171-.636-.065-.037.13.592.218-.365-.055-.158-.13-.026.037-.047-.024-.028.077h-.005l-.4,1.314.586.229-.622-.117-.149.452,0,0-.1.278h0l-.2.565h0l-.137.4-.007,0-.467,1.235.029.012-.069.107h-.005l0,0-.313.624v.134l-.167.269v.132l-.06.118v.046l-.009,0-.114.137v.126l-.112.131v.128l-.124.277h0l-.366.8.565.277-.63-.139-.379.785A51.364,51.364,0,0,1,95.07,94.5ZM7.1,66h.343l-.462.037ZM6.433,59.29l.5-.083-.172.087Zm0-.129.628-.09v-.087l5.122.008a46.054,46.054,0,0,0,8,25.487l-4.189,2.94-.217-.323-.521.352.462-.442-.164-.245-.069-.1v-.005l-.584-.9,0,0-.07-.12.005.007-.436-.707v-.016l-.1-.156h0l-.125-.215a.141.141,0,0,0-.019-.029l0,.005-.772-1.358.005.011-.037-.067.015.025-.115-.213-.138-.355-.115-.115-.177-.444-.112-.113-.078-.148-.59-1.2,0,0-.063-.064-.187.185-.311.151.514-.383-.055-.113V80.2l-.174-.252A51.357,51.357,0,0,1,8.835,71.9c-.151-.562-.295-1.126-.429-1.7l-.183-.814-.614.135.589-.248L8.138,69h-.01l-.016-.03-.587.16.583-.286-.162-.818-.02,0-.006-.011-.594.118.6-.224-.032-.17h0l-.011-.088-.1.013.092-.014,0-.027.005,0H7.865l-.044-.289-.038-.1.019-.007-.021,0-.008-.018-.59.125.588-.242-.063-.433-.618.11.6-.222-.128-.835h0l-.012-.13-.634.012.62-.116-.047-.324h0l-.267-2.6-.634-.027.622-.088-.094-1.531v-.077l-.029-.283-.143.035-.473-.013.624-.117-.029-1.152L7.008,59.2l.053-.008L7,59.177l-.016.006ZM7.965,45.835h.149v.037Zm.079-.311.07,0v.014Zm.581-.662-.369-.142.411.052.091.092Zm.162-2.5-.064-.029.228.058Zm1.082-.736.01-.029-.013.041,0-.012m94.849,16.436a46.069,46.069,0,0,0-7.913-25.519L101,29.621a50.778,50.778,0,0,1,8.036,19.729l.068.389.62-.1-.6.215.366,2.571,0-.028.086.664-.013,0,.018.1h0l.071,1.008.16,2.1-.009,0,.044,1.814ZM16.251,29.1l-.005.006Zm-.75-.268-.132-.133.261.194Zm.536.02-.25-.185.15.077.121.12Zm3.347-3.8-.009.011ZM21.7,22.521l3.619,3.625A46.16,46.16,0,0,0,12.978,49.837l-5.049-.879c.185-1,.4-1.992.646-2.971l-.444-.111.482-.041.233-.972H8.794l.058-.069.022,0h0l.012,0,.213-.754h0l.247-.827c.011-.028.021-.055.031-.089l.655-1.965,0-.007.185-.512h0l0,0a.482.482,0,0,0,.038-.1l.179-.465a.25.25,0,0,0,.011-.041.41.41,0,0,0,.038-.1c.025-.048.032-.066.027-.066l.24-.6h0l.5-1.189c.013-.029.024-.05.023-.05l0,0,.155-.352c.016-.034.029-.063.035-.079l.1-.228-.567-.272.61.174.644-1.365c.019-.034.032-.063.042-.083l.195-.4a.377.377,0,0,0,.028-.054l-.005.007L12.7,35l-.533-.337.586.233.289-.55h0l.128-.238h0l.122-.223h0l.143-.26h0l.118-.21h0L13.781,33h0l.2-.336h0l.132-.217h0l.132-.229h0l.084-.138.006-.012.195-.323h0l.067-.105-.529-.339.587.241.134-.212h0l.415-.654.006-.01.48-.727c.005-.01.013-.021.02-.031l0,0,.545-.793.3-.359L17.05,28l-.02.024.675-.906,0,0,.619-.78,0,0,.032-.037a.271.271,0,0,0,.046-.056l-.01.011L18.59,26h0l.784-.936.38-.441c.034-.036.042-.053.041-.047l.327-.369a.31.31,0,0,0,.036-.039l0,0,.4-.441h0l.68-.724-.429-.461.391.3.071.1.035-.024.005,0Zm45.6-9.5.9-5.042c.6.115,1.2.24,1.787.376l.107.025.059.058.8.149c.034.008.072.016.049.005a.7.7,0,0,0,.136.04l.126.033a.479.479,0,0,0,.074.016l0,0a.56.56,0,0,0,.09.024l.8.214v0l.062.019a.337.337,0,0,1-.061-.024h0l.088.032.2.061h0l.06.019v0l.848.251A51.521,51.521,0,0,1,94.566,21.886l-3.641,3.6A46.161,46.161,0,0,0,67.3,13.02M47.058,7.946l-.039-.262.19.561Zm.091-.292.064.21v.353Zm.389-.026-.01-.057.028.075Zm1.343-.488V7.13l.035.166Zm8.937-.082V12.18a46.06,46.06,0,0,0-25.471,8.048L29.4,16.045A51,51,0,0,1,45.6,8.672l1.511-.365h0l.1-.041.008.015,0-.012.925-.182h0l.28-.057v0l2.669-.454v0l2.571-.289.018,0,3.477-.211.033.013Zm-6.692-.546V6.466l.083.459Zm5.752-.7-.132.065.082.173-.013.4-.089-.626-.495.021v0l-2.092.109-.781.089-.059,0-.992.106-.025,0-.88.11a.267.267,0,0,0-.065.014l-.244.029h-.009l-.447.066-.046-.023-.144.044-.015,0-.993.174,0,0L48.181,6.8v0l-.188.033h-.011l-1.142.249-.062-.01-1.49.383a52.253,52.253,0,0,0-17.131,7.922l-.514.363,3.678,5.219a46.7,46.7,0,0,0-5.116,4.3L22.14,21.185l-.492-.4L20.453,22h0l-.015.019.005,0-.006.007.444.432-.509-.378.432.461-.517-.369a.486.486,0,0,0-.059.065l-.265.278h0l-.887.973h0l-.682.778h0l-.264.313h0l-.594.717.48.4-.547-.323-.094.115-.015.02-.14.183c-.018.019-.036.037-.052.057l-.056.073h0l-.094.117,0,0-.183.183-.368.524,0,0-.735.987.51.318.02.02-.541-.321-.3.41a.474.474,0,0,0-.049.071l-.418.61,0,0-.029.036-.373.544h0l-.111.165c-.01.015-.021.034-.035.057l-.094.133.021-.028-.057.1h0l-.063.092h0l-.006.012.007,0-.025.033-.009,0-.064.1h0l-.453.717h0l-.61,1.006a.234.234,0,0,0-.027.044l-.172.3a.755.755,0,0,0-.077.128h0l-.218.38a.681.681,0,0,0-.064.12l-.463.833h0l-.162.3.541.321-.59-.227-.731,1.441h0l-.289.592.564.281-.614-.173-.082.177a.8.8,0,0,0-.035.081l-.158.345h0l-.428.954c-.008.02-.016.039-.026.063l-.142.332c-.007.018-.014.034-.02.049l0,0h0l-.259.624c-.006.013-.011.028-.016.04l-.132.337a.625.625,0,0,0-.034.079l-.221.569.587.224-.625-.122-.266.721a.186.186,0,0,0-.013.035l-.206.582h0l-.059.164h0l-.168.482h0l0,.022.589.2-.619-.125-.135.415h.005l-.1.3h0L7.7,44.385l.6.207L7.664,44.5l-.129.474h0l-.031.113h0l-.043.162.61.153H7.424l-.069.278c-.3,1.209-.562,2.446-.776,3.678l-.109.62,6.287,1.093a46.645,46.645,0,0,0-.572,6.661L5.8,57.725l0,1.25.629.012-.628.1.015.772.628-.012-.625.117.007.238.63.014-.625.116.025.588,0,.066.637.054-.624.09L5.9,61.8c0,.024,0,.041,0,.041V61.83l.268,2.941.63-.03-.616.139.023.19h0l.161,1.184h0l.033.251h0l.039.246h.007l.031.063.2-.1.378-.06-.6.208.065.384h0l.038.24h0l.047.289h0l.094.52h0l.055.276-.005,0,.044.793H6.92l.052.2.61-.15-.587.251.188.837q.206.875.439,1.738a52.645,52.645,0,0,0,2.993,8.245l.572-.265-.313.252h-.2l.028.137-.021.016.171.364.042.207.183.183.237-.236.25-.122-.5.4.269.545v.481h.242l.534,1.011.009.02.092.142h0l.016.041,0,0,.084.157.117.675h.261l.383.658v.012l.914,1.481h0l.546.845h0l.145.224.516-.359-.453.452q.289.431.589.856l.362.515,5.225-3.669A46.489,46.489,0,0,0,25.2,90.627l-4.527,4.5.444.447c1,1,2.041,1.972,3.114,2.888l.242.207.42-.469-.341.535.961.79v0l1.879,1.442c.031.025.076.056.076.048l.317.239.023.016.327.231.372-.506-.253.5-.044.044.21.157.008,0,.76.517a.52.52,0,0,0,.073.049l.606.4a.4.4,0,0,0,.041.028l.523.334a.081.081,0,0,0,.02.013l.023.013h0l.151.093v0l.718.437v0l.236.144h0l.135.08v0l.82.478.007,0a.784.784,0,0,0,.088.052l.2.112,0-.005.028.009.005-.01.06.047,0,.007.827.456.067.028,0-.005.788.475.185.037h0l1.055.515,1.036.539,1.4.547a52.318,52.318,0,0,0,10.986,3.2l.619.109,1.1-6.287a46.465,46.465,0,0,0,6.659.585l-.023,6.378.9.011,1.093-.013h.092l1.225-.047a.906.906,0,0,0,.1,0l.237-.012a.554.554,0,0,0,.084-.005l.783-.048.064,0,.614-.057h0l2.307-.241v-.005l.032-.01-.1-.609.113.4v.215l.055,0,.018,0,.073-.016h0l.32-.039h.056l.29-.056h.063l.068-.014.043.023.827-.146.205-.062.007.015.541-.094A52.173,52.173,0,0,0,84.4,104.267l.154-.088-.312-.545.421.483.33-.192h0l.09-.049.042,0,.073-.072-.005-.009.027-.027-.041-.042.074-.018.034.042,1.889-1.175,0,0,.52-.339,0,0,.063-.042a.9.9,0,0,0,.113-.071l-.315-.545.413.46,0,.009h0l0,0,1.136-.771L85.44,96.029a46.476,46.476,0,0,0,5.13-4.282l4.5,4.535.447-.443a52.653,52.653,0,0,0,10.175-14.121c.11-.226.221-.451.362-.756l.6-1.3-.022-.008.053-.076h.006l.118-.139v-.113l.184-.316.13-.444,0,0,.15-.217.046-.25.1-.124.391-1.156h0l.031-.081-.008,0,.107-.267h0l.009-.029-.02-.005.126-.127.378-1.247-.594-.207.628.1.261-.646.685-2.56c.345-1.322.641-2.68.88-4.033l.11-.618-6.285-1.117a46.706,46.706,0,0,0,.6-6.657l6.391.033-.314-6.691-.121,0-.021-.021-.489.031.616-.12-.147-1.446-.029-.027v-.023l-.318-1.935a52.075,52.075,0,0,0-8.6-20.741l-.36-.516-5.241,3.651A46.671,46.671,0,0,0,91.8,26.383l4.543-4.489-.442-.447A52.8,52.8,0,0,0,73.791,8.067L72.12,7.589a.471.471,0,0,0-.049-.01l-.021-.005-.513-.135a.83.83,0,0,0-.081-.023L70.274,7.13q-1.224-.281-2.47-.5l-.619-.11L66.059,12.8a46.529,46.529,0,0,0-6.983-.619V5.8Z" transform="translate(-5.798 -5.797)" fill="#19538d"/>
    </clipPath>
    <clipPath id="clip-path-11">
      <rect id="Rectángulo_459078" data-name="Rectángulo 459078" width="130" height="130" fill="#fff" stroke="#707070" stroke-width="1"/>
    </clipPath>
    <radialGradient id="radial-gradient" cx="0.5" cy="0.5" r="0.5" gradientUnits="objectBoundingBox">
      <stop offset="0" stop-color="#2c90e1"/>
      <stop offset="1" stop-color="#19538d"/>
    </radialGradient>
  </defs>
  <g id="Grupo_1189745" data-name="Grupo 1189745" transform="translate(12507 12000)">
    <g id="Grupo_1180190" data-name="Grupo 1180190" transform="translate(-12502.833 -11994.167)">
      <g id="Grupo_1180171" data-name="Grupo 1180171">
        <g id="Grupo_1180170" data-name="Grupo 1180170" clip-path="url(#clip-path)">
          <rect id="Rectángulo_458950" data-name="Rectángulo 458950" width="165.811" height="165.811" transform="translate(-58.623 58.623) rotate(-45)" fill="#19538d"/>
        </g>
      </g>
      <g id="Grupo_1180173" data-name="Grupo 1180173" transform="translate(33.928 105.138)">
        <g id="Grupo_1180172" data-name="Grupo 1180172" clip-path="url(#clip-path-2)">
          <rect id="Rectángulo_458951" data-name="Rectángulo 458951" width="0.005" height="0.005" transform="translate(-0.001 0.001) rotate(-45)" fill="#19538d"/>
        </g>
      </g>
      <g id="Grupo_1180175" data-name="Grupo 1180175" transform="translate(14.315 30.014)">
        <g id="Grupo_1180174" data-name="Grupo 1180174" clip-path="url(#clip-path-3)">
          <rect id="Rectángulo_458952" data-name="Rectángulo 458952" width="0.136" height="0.136" transform="matrix(0.707, -0.707, 0.707, 0.707, -0.055, 0.055)" fill="#19538d"/>
        </g>
      </g>
      <g id="Grupo_1180177" data-name="Grupo 1180177" transform="translate(6.118 62.547)">
        <g id="Grupo_1180176" data-name="Grupo 1180176" clip-path="url(#clip-path-4)">
          <rect id="Rectángulo_458953" data-name="Rectángulo 458953" width="0.034" height="0.034" transform="translate(-0.022 0.022) rotate(-45.002)" fill="#19538d"/>
        </g>
      </g>
      <g id="Grupo_1180179" data-name="Grupo 1180179" transform="translate(111.207 55.963)">
        <g id="Grupo_1180178" data-name="Grupo 1180178" clip-path="url(#clip-path-5)">
          <path id="Trazado_1031310" data-name="Trazado 1031310" d="M0,0H.02V.02H0Z" transform="translate(-0.014 0.012) rotate(-45.009)" fill="#19538d"/>
        </g>
      </g>
      <g id="Grupo_1180181" data-name="Grupo 1180181" transform="translate(9.276 44.187)">
        <g id="Grupo_1180180" data-name="Grupo 1180180" clip-path="url(#clip-path-6)">
          <rect id="Rectángulo_458955" data-name="Rectángulo 458955" width="0.033" height="0.033" transform="translate(-0.018 0.018) rotate(-44.999)" fill="#19538d"/>
        </g>
      </g>
      <g id="Grupo_1180183" data-name="Grupo 1180183" transform="translate(72.488 9.119)">
        <g id="Grupo_1180182" data-name="Grupo 1180182" clip-path="url(#clip-path-7)">
          <rect id="Rectángulo_458956" data-name="Rectángulo 458956" width="0.031" height="0.031" transform="matrix(0.707, -0.707, 0.707, 0.707, -0.006, 0.006)" fill="#19538d"/>
        </g>
      </g>
      <g id="Grupo_1180185" data-name="Grupo 1180185" transform="translate(18.016 27.119)">
        <g id="Grupo_1180184" data-name="Grupo 1180184" clip-path="url(#clip-path-8)">
          <rect id="Rectángulo_458957" data-name="Rectángulo 458957" width="0.002" height="0.002" transform="matrix(0.706, -0.708, 0.708, 0.706, -0.001, 0.001)" fill="#19538d"/>
        </g>
      </g>
      <g id="Grupo_1180187" data-name="Grupo 1180187" transform="translate(15.084 28.93)">
        <g id="Grupo_1180186" data-name="Grupo 1180186" clip-path="url(#clip-path-9)">
          <rect id="Rectángulo_458958" data-name="Rectángulo 458958" width="0.101" height="0.101" transform="translate(-0.041 0.041) rotate(-45)" fill="#19538d"/>
        </g>
      </g>
      <g id="Grupo_1180189" data-name="Grupo 1180189" transform="translate(5.974 5.973)">
        <g id="Grupo_1180188" data-name="Grupo 1180188" clip-path="url(#clip-path-10)">
          <rect id="Rectángulo_458959" data-name="Rectángulo 458959" width="148.915" height="148.915" transform="translate(-52.65 52.65) rotate(-45)" fill="#19538d"/>
        </g>
      </g>
    </g>
    <ellipse id="Elipse_13701" data-name="Elipse 13701" cx="46" cy="46.5" rx="46" ry="46.5" transform="translate(-12490 -11982)" fill="url(#radial-gradient)"/>
    <g id="Grupo_1189750" data-name="Grupo 1189750" transform="translate(-12890.387 -20401.188)">
      <g id="Grupo_1099776" data-name="Grupo 1099776" transform="translate(412.387 8428.781)">
        <g id="Grupo_1099618" data-name="Grupo 1099618" transform="translate(-0.348 0.025)">
          <rect id="Rectángulo_401104" data-name="Rectángulo 401104" width="67.943" height="68.761" transform="translate(0)" fill="none"/>
        </g>
        <g id="procesamiento-de-archivos" transform="translate(1.462 1.515)">
          <path id="Trazado_1031545" data-name="Trazado 1031545" d="M62.1,54.466H59.613V21.926a4.563,4.563,0,0,0-4.558-4.558h-3.4a18.1,18.1,0,0,0-.969-3.957.619.619,0,0,0-1.163.428,16.812,16.812,0,0,1,.887,3.539H44.48c-.02,0-.031-.01-.051-.01l-1.4-.275a.429.429,0,0,1-.326-.275q-.122-.337-.275-.673a.413.413,0,0,1,.041-.418l.8-1.183a1.669,1.669,0,0,0-.2-2.121L41.37,10.729a1.67,1.67,0,0,0-2.121-.2l-1.183.8a.438.438,0,0,1-.418.041q-.337-.153-.673-.275a.429.429,0,0,1-.275-.326l-.265-1.4a1.68,1.68,0,0,0-1.642-1.356H32.406a1.672,1.672,0,0,0-1.642,1.356l-.265,1.4a.429.429,0,0,1-.275.326q-.337.122-.673.275a.438.438,0,0,1-.418-.041l-1.183-.8a1.669,1.669,0,0,0-2.121.2l-1.693,1.693a1.67,1.67,0,0,0-.2,2.121l.8,1.183a.438.438,0,0,1,.041.418q-.153.337-.275.673a.429.429,0,0,1-.326.275l-1.4.265c-.01,0-.02.01-.041.01H16.763A16.985,16.985,0,0,1,47.386,9.831l-4.854-.642a.617.617,0,1,0-.163,1.224l6.119.806a.626.626,0,0,0,.408-.031c.031-.01.061-.01.082-.031a.919.919,0,0,0,.1-.092.01.01,0,0,0,.01-.01.01.01,0,0,1,.01-.01.892.892,0,0,0,.082-.1.358.358,0,0,0,.061-.143c.01-.02.01-.051.02-.071a.62.62,0,0,0,.01-.194l-.816-6.2a.617.617,0,0,0-1.224.163l.489,3.743A18.053,18.053,0,0,0,33.589,1.51a18.25,18.25,0,0,0-18.07,15.867h-3.4a4.561,4.561,0,0,0-4.558,4.558v32.53H5.077A1.889,1.889,0,0,0,3.19,56.353v2.4a6.989,6.989,0,0,0,6.985,6.985H57.013A6.989,6.989,0,0,0,64,58.749v-2.4a1.9,1.9,0,0,0-1.9-1.887ZM21.515,22.028H16.753a17.114,17.114,0,0,1-.153-2.294c0-.377.02-.755.041-1.122h4.8a1.772,1.772,0,0,0-.051.4V21.4a1.883,1.883,0,0,0,.122.632Zm2.611,5.955,1.693,1.683a1.67,1.67,0,0,0,2.121.2l1.183-.8a.438.438,0,0,1,.418-.041q.337.153.673.275a.429.429,0,0,1,.275.326l.265,1.4A1.68,1.68,0,0,0,32.4,32.388h2.386a1.672,1.672,0,0,0,1.642-1.356l.265-1.4a.429.429,0,0,1,.275-.326c.224-.082.459-.173.673-.275a.413.413,0,0,1,.418.041l1.183.8a1.669,1.669,0,0,0,2.121-.2l1.683-1.683a1.67,1.67,0,0,0,.2-2.121l-.8-1.183a.438.438,0,0,1-.041-.418q.153-.337.275-.673a.429.429,0,0,1,.326-.275l.306-.061H50.2A17.023,17.023,0,0,1,33.579,36.722a16.843,16.843,0,0,1-13.8-7.087l4.854.642a.617.617,0,0,0,.163-1.224l-6.2-.816a.439.439,0,0,0-.163,0,.566.566,0,0,0-.347.173.608.608,0,0,0-.173.52l.816,6.2a.616.616,0,0,0,.612.53.225.225,0,0,0,.082-.01.62.62,0,0,0,.53-.693l-.489-3.743a18.22,18.22,0,0,0,32.01-7.985h.908a1.362,1.362,0,0,1,1.356,1.356V48.439A1.362,1.362,0,0,1,52.383,49.8H14.805a1.362,1.362,0,0,1-1.356-1.356V24.608a1.362,1.362,0,0,1,1.356-1.356h.908a18.13,18.13,0,0,0,.653,2.427.622.622,0,0,0,.581.418.707.707,0,0,0,.2-.031.618.618,0,0,0,.377-.785,15.754,15.754,0,0,1-.561-2.029H23.85l.306.061a.429.429,0,0,1,.326.275c.082.224.173.459.275.673a.413.413,0,0,1-.041.418l-.8,1.183a1.669,1.669,0,0,0,.2,2.121Zm21.609-9.372h4.813c.02.377.041.744.041,1.122a17.115,17.115,0,0,1-.163,2.294H45.663a1.625,1.625,0,0,0,.122-.632V19.009a1.632,1.632,0,0,0-.051-.4Zm-33.611,0h3.284c-.02.367-.041.744-.041,1.122a18.986,18.986,0,0,0,.143,2.294h-.7a2.583,2.583,0,0,0-2.58,2.58V48.46a2.583,2.583,0,0,0,2.58,2.58H52.373a2.583,2.583,0,0,0,2.58-2.58V24.608a2.583,2.583,0,0,0-2.58-2.58h-.714a18.984,18.984,0,0,0,.153-2.294c0-.377-.02-.755-.041-1.122h3.284a3.325,3.325,0,0,1,3.324,3.324v32.53H8.8V21.936a3.341,3.341,0,0,1,.969-2.345,3.306,3.306,0,0,1,2.356-.979ZM23.861,55.7H43.328v1.856A1.932,1.932,0,0,1,41.4,59.483H25.8a1.932,1.932,0,0,1-1.927-1.927V55.7Zm.52-37.395a1.655,1.655,0,0,0,1.244-1.05,6.008,6.008,0,0,1,.245-.591,1.676,1.676,0,0,0-.143-1.621l-.8-1.183a.446.446,0,0,1,.051-.561l1.693-1.693a.435.435,0,0,1,.561-.051l1.183.8a1.676,1.676,0,0,0,1.621.143,6.009,6.009,0,0,1,.591-.245A1.652,1.652,0,0,0,31.682,11l.265-1.4a.438.438,0,0,1,.438-.357h2.386a.448.448,0,0,1,.438.357l.265,1.4a1.655,1.655,0,0,0,1.05,1.244,6.009,6.009,0,0,1,.591.245,1.676,1.676,0,0,0,1.621-.143l1.183-.8a.446.446,0,0,1,.561.051L42.175,13.3a.435.435,0,0,1,.051.561l-.8,1.183a1.676,1.676,0,0,0-.143,1.621,6.009,6.009,0,0,1,.245.591,1.652,1.652,0,0,0,1.244,1.05l1.4.275a.438.438,0,0,1,.357.438v2.386a.448.448,0,0,1-.357.438l-1.4.275a1.655,1.655,0,0,0-1.244,1.05,6.008,6.008,0,0,1-.245.591,1.676,1.676,0,0,0,.143,1.621l.8,1.183a.434.434,0,0,1-.051.561l-1.693,1.693a.435.435,0,0,1-.561.051l-1.183-.8a1.676,1.676,0,0,0-1.621-.143,6.009,6.009,0,0,1-.591.245,1.652,1.652,0,0,0-1.05,1.244l-.265,1.4a.438.438,0,0,1-.438.357H32.386a.448.448,0,0,1-.438-.357l-.265-1.4a1.655,1.655,0,0,0-1.05-1.244,6.009,6.009,0,0,1-.591-.245,1.581,1.581,0,0,0-.683-.143,1.719,1.719,0,0,0-.938.286l-1.183.8a.446.446,0,0,1-.561-.051l-1.693-1.693a.435.435,0,0,1-.051-.561l.8-1.183a1.676,1.676,0,0,0,.143-1.621,6.008,6.008,0,0,1-.245-.591,1.636,1.636,0,0,0-1.244-1.05l-1.4-.265a.438.438,0,0,1-.357-.438V19.03a.448.448,0,0,1,.357-.438ZM62.764,58.749A5.758,5.758,0,0,1,57.013,64.5H10.165a5.758,5.758,0,0,1-5.751-5.751v-2.4a.662.662,0,0,1,.663-.663h17.55v1.856a3.164,3.164,0,0,0,3.161,3.161h15.6a3.164,3.164,0,0,0,3.161-3.161V55.69H62.1a.662.662,0,0,1,.663.663Z" transform="translate(-0.589 -0.622)" fill="#fff" stroke="#fff" stroke-width="0.5"/>
          <path id="Trazado_1031546" data-name="Trazado 1031546" d="M24.34,47.21H41.66a4.105,4.105,0,1,0,0-8.21H24.34a4.105,4.105,0,1,0,0,8.21Zm20.22-4.1a2.9,2.9,0,0,1-2.9,2.9h-5.2l2.18-5.8h3.03a2.894,2.894,0,0,1,2.89,2.9ZM24.34,40.2h13L35.16,46H24.34a2.9,2.9,0,0,1,0-5.8Z" fill="#fff" stroke="#fff" stroke-width="0.5"/>
          <path id="Trazado_1031547" data-name="Trazado 1031547" d="M33,26.46a6.62,6.62,0,1,0-6.62-6.62A6.628,6.628,0,0,0,33,26.46Zm0-12.04a5.42,5.42,0,1,1-5.42,5.42A5.424,5.424,0,0,1,33,14.42Z" fill="#fff" stroke="#fff" stroke-width="0.5"/>
        </g>
      </g>
    </g>
  </g>
</svg>
