<svg xmlns="http://www.w3.org/2000/svg" xmlns:xlink="http://www.w3.org/1999/xlink" width="177.148" height="409.5" viewBox="0 0 177.148 409.5">
  <defs>
    <clipPath id="clip-path">
      <rect id="Rectángulo_456809" data-name="Rectángulo 456809" width="149.322" height="409.5" fill="none"/>
    </clipPath>
  </defs>
  <g id="Grupo_1189046" data-name="Grupo 1189046" transform="translate(-10596 8519.925)">
    <path id="Trazado_1000462" data-name="Trazado 1000462" d="M0,0H177.139V290.585H0Z" transform="translate(10596 -8401.01)" fill="none"/>
    <g id="Grupo_1180337" data-name="Grupo 1180337" transform="translate(10612.218 -8465.688)">
      <path id="Trazado_1000311" data-name="Trazado 1000311" d="M6.474,36.6h44.9a2.267,2.267,0,0,0,2.267-2.267V19.373A2.268,2.268,0,0,0,51.377,17.1H6.474a2.267,2.267,0,0,0-2.267,2.268v14.96A2.267,2.267,0,0,0,6.474,36.6" transform="translate(-4.207 -17.105)" fill="#ffb758"/>
      <line id="Línea_3355" data-name="Línea 3355" x1="32.855" transform="translate(7.882 7.471)" fill="none" stroke="#1c1927" stroke-linecap="round" stroke-linejoin="round" stroke-width="1.076"/>
      <line id="Línea_3356" data-name="Línea 3356" x1="11.25" transform="translate(7.991 12.652)" fill="none" stroke="#1c1927" stroke-linecap="round" stroke-linejoin="round" stroke-width="1.076"/>
      <path id="Trazado_1000312" data-name="Trazado 1000312" d="M38.592,29.623v8.817L27.353,29.623Z" transform="translate(3.899 -12.722)" fill="#ffb758"/>
    </g>
    <path id="Rectángulo_456808" data-name="Rectángulo 456808" d="M80,0h97a0,0,0,0,1,0,0V106a0,0,0,0,1,0,0H0a0,0,0,0,1,0,0V80A80,80,0,0,1,80,0Z" transform="translate(10596.148 -8216.925)" fill="#85c4bf"/>
    <g id="Grupo_1180360" data-name="Grupo 1180360" transform="translate(10612.218 -8519.925)" clip-path="url(#clip-path)">
      <path id="Trazado_1000426" data-name="Trazado 1000426" d="M39.026,184.816s-8.26,4.974-9.44,10.6h20.3L53.9,186.65l2.715,8.769h2.744s2.575-22.746-2.446-30.022Z" transform="translate(31.649 214.081)" fill="#20202a"/>
      <path id="Trazado_1000427" data-name="Trazado 1000427" d="M42.162,152.6l1.066,30.15-9.612,21.046s10.783,2.6,15.473-7.273,3.516-14.553,3.516-14.553l2.446-29.37Z" transform="translate(35.96 197.513)" fill="#a56646"/>
      <path id="Trazado_1000428" data-name="Trazado 1000428" d="M54.258,184.816s-8.26,4.974-9.44,10.6h20.3l4.013-8.769,2.715,8.769H74.6s2.575-22.746-2.446-30.022Z" transform="translate(47.943 214.081)" fill="#20202a"/>
      <path id="Trazado_1000429" data-name="Trazado 1000429" d="M57.394,152.6l1.066,30.15-9.612,21.046s10.783,2.6,15.473-7.273,3.516-14.553,3.516-14.553l2.446-29.37Z" transform="translate(52.254 197.513)" fill="#a56646"/>
      <path id="Trazado_1000430" data-name="Trazado 1000430" d="M28.892,123.264c.8-39.165,15.893-56.019,15.893-56.019H88.357s14.072,10.409,14.072,56.019c0,45.625.008,45.5-7.432,145.535H75.885L65.627,124.253a.145.145,0,1,0-.29.011L64.557,268.8l-22.171.2a.551.551,0,0,1-.538-.482c-1.378-7.9-13.72-107.873-12.956-145.248" transform="translate(30.87 87.038)" fill="#20202a"/>
      <path id="Trazado_1000431" data-name="Trazado 1000431" d="M39.057,106.732c.315-.723,1.236,1.826,1.4,1.046L54.78,62.056C56.409,55.518,53.454,36.881,47.336,37c-4.493.087-8.987,9.866-9.63,14.794L24.815,94.941Z" transform="translate(26.545 47.884)" fill="#8e644a"/>
      <path id="Trazado_1000432" data-name="Trazado 1000432" d="M54.908,76.217,11.042,52.75,5.961,60.317l38.2,34.617c5.553,5.091,13.991,2.271,16.082-5.373,1.447-5.3-.82-10.972-5.332-13.344" transform="translate(6.377 68.277)" fill="#8e644a"/>
      <path id="Trazado_1000433" data-name="Trazado 1000433" d="M50.886,38.778s7.561,10.763,2.639,26.984L28.076,58.13s-2.8-20.408,14.78-22.81Z" transform="translate(29.858 45.716)" fill="#669bce"/>
      <path id="Trazado_1000434" data-name="Trazado 1000434" d="M1.078,54.021C-1.455,58.58.627,65.1,5.725,68.576s11.284,2.606,13.817-1.953.451-11.075-4.647-14.555S3.612,49.462,1.078,54.021" transform="translate(0 64.636)" fill="#8e644a"/>
      <path id="Trazado_1000435" data-name="Trazado 1000435" d="M60.935,31.393S49.67,31.505,32.421,42.38c0,0-3.8,31.265,5.416,43.228l1.32,20.511,46.521-.229S88.258,69.3,97.822,60.051L94.635,41.836a58.6,58.6,0,0,0-33.7-10.444" transform="translate(33.852 40.62)" fill="#669bce"/>
      <path id="Trazado_1000436" data-name="Trazado 1000436" d="M86.6,99.918c-.1-.794,1.946.748,1.685,0L77.1,53.134c-1.948-6.429-13.8-20.046-18.816-16.157-3.682,2.856-2.471,13.75-.517,18.235L68.85,98.975Z" transform="translate(59.797 46.973)" fill="#8e644a"/>
      <path id="Trazado_1000437" data-name="Trazado 1000437" d="M91.654,61.6l-48.2,7.746-.393,9.423,49.129,5.013c7.174.778,12.745-6.794,10.62-14.425v0c-1.474-5.288-6.215-8.585-11.152-7.755" transform="translate(46.059 79.573)" fill="#8e644a"/>
      <path id="Trazado_1000438" data-name="Trazado 1000438" d="M67.22,34.6s11.7,4.231,15.8,20.732L58.074,64.781S45.455,49.6,58.819,36.708Z" transform="translate(56.353 44.781)" fill="#669bce"/>
      <path id="Trazado_1000439" data-name="Trazado 1000439" d="M36.129,74.223c.2,5.348,5.214,9.462,11.2,9.184s10.667-4.836,10.467-10.185-5.214-9.462-11.2-9.187S35.928,68.875,36.129,74.223" transform="translate(38.642 82.868)" fill="#8e644a"/>
      <path id="Trazado_1000440" data-name="Trazado 1000440" d="M66.429,69.318H35.952V63.906H66.429a2.721,2.721,0,0,1,0,5.412" transform="translate(38.459 82.717)" fill="#727997"/>
      <path id="Trazado_1000441" data-name="Trazado 1000441" d="M77.882,99.167H20.551A7.516,7.516,0,0,1,13.466,93.2L2.287,48.678c-.989-3.935,1.681-7.833,5.367-7.833H60.31A4.967,4.967,0,0,1,65,44.856Z" transform="translate(2.225 52.868)" fill="#b0c0d2"/>
      <path id="Trazado_1000442" data-name="Trazado 1000442" d="M27.445,58.034c0,3.32-2.428,6.014-5.423,6.014S16.6,61.354,16.6,58.034s2.428-6.013,5.425-6.013,5.423,2.694,5.423,6.013" transform="translate(17.755 67.333)" fill="#fff"/>
      <path id="Trazado_1000443" data-name="Trazado 1000443" d="M59.151,20.127c5.089.523,21.074,3.132,20.031,15.379A14.376,14.376,0,0,1,69.388,48.15c-5.17,1.542-12.292.475-17.756-12.536C43.684,16.7,52.807,18.314,56.34,19.5a12.805,12.805,0,0,0,2.811.622" transform="translate(51.851 24.409)" fill="#1c1927"/>
      <path id="Trazado_1000444" data-name="Trazado 1000444" d="M32.309,29.624c.575,16.076,12.8,28.592,27.3,27.954S86.479,42.1,85.9,26.022,74.034-2.6,57.57.6c-14.3,2.774-25.836,12.947-25.261,29.023" transform="translate(34.539 0.129)" fill="#1c1927"/>
      <path id="Trazado_1000445" data-name="Trazado 1000445" d="M60.958,51.647,59.784,16.982l-19.3.945L41.66,52.593C41.9,58.5,46.405,63.078,51.735,62.816s9.459-5.261,9.223-11.169" transform="translate(43.309 21.981)" fill="#8e644a"/>
      <path id="Trazado_1000446" data-name="Trazado 1000446" d="M60.228,17.663S59.113,43.316,41.264,43.69l-.493-12.8Z" transform="translate(43.614 22.862)" fill="#794f3c"/>
      <path id="Trazado_1000447" data-name="Trazado 1000447" d="M36.553,37.169s17.1-11.531,39.983-2.049L52.063,52.135Z" transform="translate(39.102 40.614)" fill="#8e644a"/>
      <path id="Trazado_1000448" data-name="Trazado 1000448" d="M44.29,20.537c.147,4.121-2.747,7.594-6.464,7.759s-6.851-3.045-7-7.168,2.747-7.594,6.466-7.757,6.851,3.045,7,7.165" transform="translate(32.97 17.299)" fill="#794f3c"/>
      <path id="Trazado_1000449" data-name="Trazado 1000449" d="M52.985,58.16h0c-10.338.454-19.046-6.085-19.455-17.545l-.706-19.708c-.3-8.457,7.708-17.735,12.207-17.933L61.8,7.4c4.5-.2,8.329,3.721,8.509,8.712l.7,19.63C71.42,47.2,61.7,57.777,52.985,58.16" transform="translate(35.103 3.849)" fill="#8e644a"/>
      <path id="Trazado_1000450" data-name="Trazado 1000450" d="M41.509,16.191a1.533,1.533,0,0,0,1.645,1.457,1.62,1.62,0,0,0,1.314-1.824,1.533,1.533,0,0,0-1.645-1.457,1.62,1.62,0,0,0-1.314,1.824" transform="translate(44.393 18.582)" fill="#1f2326"/>
      <path id="Trazado_1000451" data-name="Trazado 1000451" d="M34.923,16.4a1.533,1.533,0,0,0,1.645,1.457,1.62,1.62,0,0,0,1.314-1.824,1.533,1.533,0,0,0-1.645-1.457A1.62,1.62,0,0,0,34.923,16.4" transform="translate(37.348 18.85)" fill="#1f2326"/>
      <path id="Trazado_1000452" data-name="Trazado 1000452" d="M37.888,16.312l-.232,4.747s.342,2.485,3.512,1.386" transform="translate(40.281 21.113)" fill="none" stroke="#503224" stroke-linecap="round" stroke-linejoin="round" stroke-width="0.542"/>
      <path id="Trazado_1000453" data-name="Trazado 1000453" d="M48.4,14.6a1.222,1.222,0,0,1-.275.03l-6.745-.021a1.443,1.443,0,0,1-1.36-1.517,1.443,1.443,0,0,1,1.368-1.507l6.745.021a1.447,1.447,0,0,1,1.36,1.517A1.484,1.484,0,0,1,48.4,14.6" transform="translate(42.812 14.995)" fill="#1f2326"/>
      <path id="Trazado_1000454" data-name="Trazado 1000454" d="M39.2,14.729a1.222,1.222,0,0,1-.275.03L34.8,14.747a1.446,1.446,0,0,1-1.362-1.517,1.444,1.444,0,0,1,1.368-1.507l4.123.011a1.448,1.448,0,0,1,1.362,1.517A1.484,1.484,0,0,1,39.2,14.729" transform="translate(35.77 15.174)" fill="#1f2326"/>
      <path id="Trazado_1000455" data-name="Trazado 1000455" d="M37.582,6.985S52.7,29.637,67.049,29.653c0,0,7.343-14.835-5.017-23.967S39.894,4.172,39.894,4.172Z" transform="translate(40.202 1.548)" fill="#1c1927"/>
      <path id="Trazado_1000456" data-name="Trazado 1000456" d="M53,8.749A39.466,39.466,0,0,1,32.779,19.276S34.78,4.895,46,2.474Z" transform="translate(35.064 3.202)" fill="#1c1927"/>
      <path id="Trazado_1000457" data-name="Trazado 1000457" d="M47.187,10.589s-.459,11.318,6.048,12.378l.871-10.288Z" transform="translate(50.469 13.706)" fill="#1c1927"/>
      <path id="Trazado_1000458" data-name="Trazado 1000458" d="M62.175,19.827c.147,4.121-2.747,7.594-6.464,7.759s-6.851-3.047-7-7.168,2.747-7.594,6.464-7.757,6.853,3.045,7,7.165" transform="translate(52.102 16.38)" fill="#8e644a"/>
      <path id="Trazado_1000459" data-name="Trazado 1000459" d="M45.276,19.553s-.83,3.616-5.83,4.07" transform="translate(42.196 25.308)" fill="none" stroke="#201009" stroke-linecap="round" stroke-linejoin="round" stroke-width="0.542"/>
      <path id="Trazado_1000460" data-name="Trazado 1000460" d="M46.616,11.055s-11.98,7.452-16.506.727a10.763,10.763,0,0,0,8.345-5.926Z" transform="translate(32.209 7.58)" fill="#1c1927"/>
      <path id="Trazado_1000461" data-name="Trazado 1000461" d="M34.142,13.436S36.744-3.694,55.586.73L54.067,8.482Z" transform="translate(36.522 0)" fill="#1c1927"/>
    </g>
  </g>
</svg>
